<svg id="Layer_1" enable-background="new 0 0 512 512" height="512" viewBox="0 0 512 512" width="512" xmlns="http://www.w3.org/2000/svg"><g><g><path d="m152.109 166.5c31.981 0 58-26.019 58-58s-26.019-58-58-58-58 26.019-58 58 26.019 58 58 58zm0-101c23.71 0 43 19.29 43 43s-19.29 43-43 43-43-19.29-43-43 19.29-43 43-43z"/><path d="m152.107 28.081c4.142 0 7.5-3.357 7.5-7.5v-13.081c0-4.143-3.358-7.5-7.5-7.5s-7.5 3.357-7.5 7.5v13.081c0 4.143 3.358 7.5 7.5 7.5z"/><path d="m214.271 53.836c1.919 0 3.839-.732 5.303-2.196l9.253-9.253c2.929-2.93 2.929-7.678 0-10.607-2.929-2.928-7.678-2.928-10.606 0l-9.253 9.253c-2.929 2.93-2.929 7.678 0 10.607 1.464 1.464 3.384 2.196 5.303 2.196z"/><path d="m51.107 116h13.082c4.142 0 7.5-3.357 7.5-7.5s-3.358-7.5-7.5-7.5h-13.082c-4.142 0-7.5 3.357-7.5 7.5s3.358 7.5 7.5 7.5z"/><path d="m84.64 51.64c1.464 1.464 3.384 2.196 5.303 2.196s3.839-.732 5.303-2.196c2.929-2.93 2.929-7.678 0-10.607l-9.253-9.253c-2.929-2.928-7.678-2.928-10.606 0-2.929 2.93-2.929 7.678 0 10.607z"/><path d="m504.5 423.176c4.143 0 7.5-3.357 7.5-7.5v-137.676c0-20.678-16.822-37.5-37.5-37.5h-6.913c13.248-17.922 9.577-52.411-2.384-70.764-15.233-25.443-44.07-25.505-59.393 0-12.017 18.393-15.587 52.741-2.384 70.764h-14.306c-2.987-14.111-10.578-47.032-18.475-57.872-4.903-6.731-10.002-11.069-14.5-14.896-4.299-3.657-8.011-6.816-11.221-11.64-3.962-3.277-7.28-25.066-18.152-20.52-3.804 1.64-5.559 6.053-3.919 9.856 2.554 5.925 6.29 14.025 9.584 18.975 4.374 6.573 9.262 10.731 13.987 14.752 18.172 13.13 20.305 33.117 27.356 61.345h-233.02c4.617-9.589 9.275-18.35 11.327-20.625 2.14-2.173 33.775-11.694 39.414-14.045 14.616-6.091 22.755-20.94 28.142-30.767.69-1.259 1.338-2.443 1.955-3.521 4.969-8.693 6.557-23.565 7.868-39.331.125-1.494.24-2.887.354-4.144.594-6.557 11.371-33.151 18.854-49.99 3.977-8.435 9.834-17.235 12.277-18.474 6.068-2.589 14.413-2.814 18.223-.493l.395.24c6.477 3.94 21.643 13.169 25.261 31.53 1.295 6.569 3.553 14.87 6.53 24.003 1.284 3.938 5.517 6.094 9.455 4.807 3.938-1.284 6.09-5.518 4.807-9.455-2.794-8.57-4.895-16.267-6.075-22.255-4.895-24.841-24.718-36.903-32.181-41.444l-.386-.234c-9.361-5.707-23.106-4.255-31.918-.493-8.821 3.768-16.923 19.411-19.997 25.963-.022.046-.043.092-.063.139-3.178 7.147-19.085 43.385-20.119 54.806-.923 10.536-2.142 29.936-6.305 37.383-.657 1.149-1.35 2.413-2.086 3.755-4.641 8.467-10.997 20.063-20.757 24.131-11.626 4.983-39.271 10.535-44.771 17.832-4.707 5.221-12.786 22.034-16.784 30.684h-15.603c13.248-17.922 9.577-52.411-2.385-70.764-15.232-25.443-44.07-25.505-59.392 0-12.02 18.391-15.59 52.74-2.387 70.762h-6.913c-20.678 0-37.5 16.822-37.5 37.5v196.5c0 20.678 16.822 37.5 37.5 37.5h437c20.678 0 37.5-16.822 37.5-37.5v-26.638c-.589-10.285-14.73-9.4-15 0v26.638c0 12.406-10.094 22.5-22.5 22.5h-15.368c3.224-10.057 4.051-21.152 2.164-31.36-10.978-47.854-67.927-61.499-102.158-68.988-6.97-1.581-12.989-2.947-17.527-4.446-7.984-2.639-11.63-6.898-12.277-8.47.103-.313.417-.752.872-1.208 2.992-3.002 10.437-5.537 16.255-5.537h81.66c12.56 0 24.551-5.103 33.766-14.366 9.68-9.731 15.188-23.256 15.114-37.102-.068-13.464-5.014-26.142-13.919-35.691-9.108-9.789-21.269-15.181-34.241-15.181h-345.681c-44.726.79-62.998 56.448-34.244 87.155 9.1 9.792 21.261 15.185 34.244 15.185h45.84c10.285-.589 9.399-14.729 0-15h-45.84c-8.767 0-17.026-3.692-23.262-10.402-21.101-23.174-6.273-61.536 23.262-61.938h345.68c8.761 0 17.021 3.692 23.265 10.404 6.332 6.79 9.847 15.862 9.896 25.546.054 9.885-3.864 19.523-10.749 26.445-6.379 6.413-14.593 9.944-23.131 9.944h-81.66c-8.168 0-20.063 3.112-26.877 9.945-3.472 3.482-5.3 7.646-5.287 12.043.026 8.839 9.323 18.078 22.607 22.469 21.092 6.206 39.656 8.284 65.152 17.995 15.714 5.893 40.528 22.451 44.489 43.921 1.744 9.435.462 19.847-3.419 28.637h-117.876c9.737-6.14 19.994-14.984 25.47-26.959 1.618-3.534 1.699-7.461.236-11.355-5.594-14.889-35.72-29.478-63.517-41.982-3.437-1.546-6.151-2.768-7.716-3.547-3.371-1.678-8.991-5.088-8.768-9.064.316-5.602 9.308-13.133 16.831-15.875 5.588-2.036 8.607-7.566 7.514-13.763-1.066-6.042-6.279-12.464-13.841-12.464h-121.964c-10.285.589-9.399 14.729 0 15h116.952c-9.244 5.108-19.81 14.592-20.467 26.258-.371 6.586 2.287 15.98 17.057 23.336 1.829.91 4.661 2.185 8.248 3.799 9.428 4.241 23.676 10.65 35.8 17.656 17.144 9.905 19.553 15.062 19.868 16.035-4.265 9.08-13.936 17.774-27.28 24.514-7.375 3.734-15.596 6.489-25.107 8.412h-247.066c-12.407-.001-22.5-10.095-22.5-22.501v-196.5c0-12.406 10.093-22.5 22.5-22.5h437c12.406 0 22.5 10.094 22.5 22.5v137.676c0 4.142 3.357 7.5 7.5 7.5zm-453.507-213.268c-.043-20.268 9.547-39.587 20.945-43.592 31.608-9.096 48.69 84.146-1.986 73.564-12.605-2.541-18.834-12.717-18.959-29.972zm359.014 0c-.043-20.268 9.547-39.587 20.945-43.592 31.607-9.096 48.69 84.146-1.986 73.564-12.605-2.541-18.835-12.717-18.959-29.972z"/></g></g></svg>